<mxfile host="app.diagrams.net" modified="2024-05-27T09:29:46.065Z" agent="Mozilla/5.0 (Windows NT 10.0; Win64; x64) AppleWebKit/537.36 (KHTML, like Gecko) Chrome/120.0.0.0 Safari/537.36" version="24.2.5" etag="y4UQfxxwkELeq1Y3qe5k" type="github">
  <diagram name="第 1 页" id="KcgZMIl5eJW6m7BrYvfu">
    <mxGraphModel>
      <root>
        <mxCell id="0" />
        <mxCell id="1" parent="0" />
      </root>
    </mxGraphModel>
  </diagram>
</mxfile>
